<svg xmlns="http://www.w3.org/2000/svg" width="805" height="1000"><rect width="805" height="1000" x="0" y="0" fill="#FFFFFF" id="backgorund"/><g transform="translate(100,100)" id="visualization"><g><rect x="0" y="-1.1368683772161603e-13" height="1.6991643454038998" width="5" fill="black"><title>Baritone horn: 1</title></rect><rect x="0" y="6.699164345403786" height="1.6991643454039016" width="5" fill="black"><title>Chimes: 1</title></rect><rect x="0" y="13.398328690807688" height="1.699164345403915" width="5" fill="black"><title>Marimba: 1</title></rect><rect x="0" y="20.097493036211603" height="1.699164345403915" width="5" fill="black"><title>Pipe organ: 1</title></rect><rect x="0" y="26.796657381615518" height="1.699164345403915" width="5" fill="black"><title>Tenor drum: 1</title></rect><rect x="0" y="33.49582172701943" height="1.699164345403915" width="5" fill="black"><title>Tubular bells: 1</title></rect><rect x="0" y="40.19498607242335" height="1.699164345403915" width="5" fill="black"><title>Vibraphone: 1</title></rect><rect x="0" y="46.89415041782726" height="1.699164345403915" width="5" fill="black"><title>Wagner Tuba: 1</title></rect><rect x="0" y="53.59331476323118" height="1.699164345403915" width="5" fill="black"><title>Wood block: 1</title></rect><rect x="0" y="60.29247910863509" height="3.3983286908078014" width="5" fill="black"><title>Bass Clarinet: 2</title></rect><rect x="0" y="68.6908077994429" height="3.3983286908078014" width="5" fill="black"><title>Celesta: 2</title></rect><rect x="0" y="77.0891364902507" height="3.3983286908078014" width="5" fill="black"><title>Contrabassoon: 2</title></rect><rect x="0" y="85.4874651810585" height="3.3983286908078014" width="5" fill="black"><title>Cornet: 2</title></rect><rect x="0" y="93.8857938718663" height="3.3983286908078014" width="5" fill="black"><title>English Horn: 2</title></rect><rect x="0" y="102.2841225626741" height="3.398328690807773" width="5" fill="black"><title>Piano: 2</title></rect><rect x="0" y="110.68245125348187" height="3.398328690807773" width="5" fill="black"><title>Piccolo: 2</title></rect><rect x="0" y="119.08077994428965" height="3.398328690807773" width="5" fill="black"><title>Tam-tam: 2</title></rect><rect x="0" y="127.47910863509742" height="3.39832869080783" width="5" fill="black"><title>Xylophone: 2</title></rect><rect x="0" y="135.87743732590525" height="5.097493036211688" width="5" fill="black"><title>Bass Drum: 3</title></rect><rect x="0" y="145.97493036211694" height="5.097493036211688" width="5" fill="black"><title>Cymbals: 3</title></rect><rect x="0" y="156.07242339832862" height="5.097493036211688" width="5" fill="black"><title>Glockenspiel: 3</title></rect><rect x="0" y="166.1699164345403" height="5.097493036211688" width="5" fill="black"><title>Snare Drum: 3</title></rect><rect x="0" y="176.267409470752" height="5.097493036211631" width="5" fill="black"><title>Tambourine: 3</title></rect><rect x="0" y="186.36490250696363" height="5.097493036211688" width="5" fill="black"><title>Triangle: 3</title></rect><rect x="600" y="85" height="8.495821727019518" width="5" fill="black"><title>Keyboards: 5</title></rect><rect x="0" y="196.46239554317532" height="8.495821727019518" width="5" fill="black"><title>Harps: 5</title></rect><rect x="0" y="209.95821727019484" height="8.495821727019518" width="5" fill="black"><title>Tubas: 5</title></rect><rect x="0" y="223.45403899721435" height="16.99164345403898" width="5" fill="black"><title>Timpani: 10</title></rect><rect x="0" y="245.44568245125333" height="18.690807799442894" width="5" fill="black"><title>Bassoons: 11</title></rect><rect x="0" y="269.1364902506962" height="18.690807799442894" width="5" fill="black"><title>Clarinets: 11</title></rect><rect x="0" y="292.8272980501391" height="18.690807799442894" width="5" fill="black"><title>Flutes: 11</title></rect><rect x="0" y="316.518105849582" height="18.690807799442894" width="5" fill="black"><title>Oboes: 11</title></rect><rect x="0" y="340.2089136490249" height="22.089136490250723" width="5" fill="black"><title>Trombones: 13</title></rect><rect x="0" y="367.29805013927563" height="23.78830083565458" width="5" fill="black"><title>Trumpets: 14</title></rect><rect x="0" y="396.0863509749302" height="40.77994428969362" width="5" fill="black"><title>French Horns: 24</title></rect><rect x="0" y="441.86629526462383" height="42.479108635097475" width="5" fill="black"><title>Double basses: 25</title></rect><rect x="0" y="489.3454038997213" height="54.37325905292482" width="5" fill="black"><title>Cellos: 32</title></rect><rect x="600" y="98.49582172701952" height="64.5682451253482" width="5" fill="black"><title>Percussion: 38</title></rect><rect x="0" y="548.7186629526461" height="67.96657381615603" width="5" fill="black"><title>Violas: 40</title></rect><rect x="0" y="621.6852367688022" height="81.55988857938723" width="5" fill="black"><title>Violins 2: 48</title></rect><rect x="600" y="168.06406685236772" height="88.35654596100278" width="5" fill="black"><title>Woodwinds: 52</title></rect><rect x="0" y="708.2451253481894" height="91.75487465181061" width="5" fill="black"><title>Violins 1: 54</title></rect><rect x="600" y="261.4206128133705" height="101.94986072423399" width="5" fill="black"><title>Brass: 60</title></rect><rect x="600" y="368.3704735376045" height="346.6295264623955" width="5" fill="black"><title>Strings: 204</title></rect></g><g fill="none" stroke-opacity="1"><g style="mix-blend-mode: multiply;"><path d="M5,0.8495821727018362C302.5,0.8495821727018362,302.5,262.27019498607245,600,262.27019498607245" stroke="rgb(158, 1, 66)" stroke-width="1.6991643454038998"/><title>Baritone horn → Brass: 1</title></g><g style="mix-blend-mode: multiply;"><path d="M5,61.99164345403899C302.5,61.99164345403899,302.5,169.7632311977716,600,169.7632311977716" stroke="rgb(172, 17, 69)" stroke-width="3.3983286908077996"/><title>Bass Clarinet → Woodwinds: 2</title></g><g style="mix-blend-mode: multiply;"><path d="M5,138.4261838440111C302.5,138.4261838440111,302.5,118.03621169916437,600,118.03621169916437" stroke="rgb(186, 33, 72)" stroke-width="5.0974930362116995"/><title>Bass Drum → Percussion: 3</title></g><g style="mix-blend-mode: multiply;"><path d="M5,254.79108635097478C302.5,254.79108635097478,302.5,191.00278551532037,600,191.00278551532037" stroke="rgb(199, 48, 74)" stroke-width="18.690807799442897"/><title>Bassoons → Woodwinds: 11</title></g><g style="mix-blend-mode: multiply;"><path d="M5,70.3899721448468C302.5,70.3899721448468,302.5,88.3983286908078,600,88.3983286908078" stroke="rgb(211, 62, 75)" stroke-width="3.3983286908077996"/><title>Celesta → Keyboards: 2</title></g><g style="mix-blend-mode: multiply;"><path d="M5,516.5320334261837C302.5,516.5320334261837,302.5,446.5320334261839,600,446.5320334261839" stroke="rgb(221, 76, 74)" stroke-width="54.373259052924794"/><title>Cellos → Strings: 32</title></g><g style="mix-blend-mode: multiply;"><path d="M5,7.548746518105736C302.5,7.548746518105736,302.5,99.34540389972146,600,99.34540389972146" stroke="rgb(230, 90, 73)" stroke-width="1.6991643454038998"/><title>Chimes → Percussion: 1</title></g><g style="mix-blend-mode: multiply;"><path d="M5,278.4818941504177C302.5,278.4818941504177,302.5,209.69359331476326,600,209.69359331476326" stroke="rgb(237, 103, 73)" stroke-width="18.690807799442897"/><title>Clarinets → Woodwinds: 11</title></g><g style="mix-blend-mode: multiply;"><path d="M5,78.7883008356546C302.5,78.7883008356546,302.5,173.1615598885794,600,173.1615598885794" stroke="rgb(242, 118, 75)" stroke-width="3.3983286908077996"/><title>Contrabassoon → Woodwinds: 2</title></g><g style="mix-blend-mode: multiply;"><path d="M5,87.1866295264624C302.5,87.1866295264624,302.5,266.51810584958224,600,266.51810584958224" stroke="rgb(246, 134, 80)" stroke-width="3.3983286908077996"/><title>Cornet → Brass: 2</title></g><g style="mix-blend-mode: multiply;"><path d="M5,148.52367688022278C302.5,148.52367688022278,302.5,123.13370473537607,600,123.13370473537607" stroke="rgb(249, 150, 87)" stroke-width="5.0974930362116995"/><title>Cymbals → Percussion: 3</title></g><g style="mix-blend-mode: multiply;"><path d="M5,463.1058495821726C302.5,463.1058495821726,302.5,398.10584958217277,600,398.10584958217277" stroke="rgb(251, 165, 95)" stroke-width="42.4791086350975"/><title>Double basses → Strings: 25</title></g><g style="mix-blend-mode: multiply;"><path d="M5,95.5849582172702C302.5,95.5849582172702,302.5,176.5598885793872,600,176.5598885793872" stroke="rgb(252, 180, 105)" stroke-width="3.3983286908077996"/><title>English Horn → Woodwinds: 2</title></g><g style="mix-blend-mode: multiply;"><path d="M5,302.1727019498606C302.5,302.1727019498606,302.5,228.38440111420616,600,228.38440111420616" stroke="rgb(253, 194, 115)" stroke-width="18.690807799442897"/><title>Flutes → Woodwinds: 11</title></g><g style="mix-blend-mode: multiply;"><path d="M5,416.476323119777C302.5,416.476323119777,302.5,342.98050139275773,600,342.98050139275773" stroke="rgb(254, 207, 126)" stroke-width="40.779944289693596"/><title>French Horns → Brass: 24</title></g><g style="mix-blend-mode: multiply;"><path d="M5,158.62116991643447C302.5,158.62116991643447,302.5,128.23119777158777,600,128.23119777158777" stroke="rgb(254, 219, 138)" stroke-width="5.0974930362116995"/><title>Glockenspiel → Percussion: 3</title></g><g style="mix-blend-mode: multiply;"><path d="M5,200.71030640668508C302.5,200.71030640668508,302.5,372.6183844011142,600,372.6183844011142" stroke="rgb(254, 229, 151)" stroke-width="8.4958217270195"/><title>Harps → Strings: 5</title></g><g style="mix-blend-mode: multiply;"><path d="M5,14.247910863509638C302.5,14.247910863509638,302.5,101.04456824512536,600,101.04456824512536" stroke="rgb(254, 237, 162)" stroke-width="1.6991643454038998"/><title>Marimba → Percussion: 1</title></g><g style="mix-blend-mode: multiply;"><path d="M5,325.8635097493035C302.5,325.8635097493035,302.5,247.07520891364905,600,247.07520891364905" stroke="rgb(253, 244, 171)" stroke-width="18.690807799442897"/><title>Oboes → Woodwinds: 11</title></g><g style="mix-blend-mode: multiply;"><path d="M5,103.983286908078C302.5,103.983286908078,302.5,91.7966573816156,600,91.7966573816156" stroke="rgb(251, 248, 176)" stroke-width="3.3983286908077996"/><title>Piano → Keyboards: 2</title></g><g style="mix-blend-mode: multiply;"><path d="M5,112.38161559888577C302.5,112.38161559888577,302.5,179.958217270195,600,179.958217270195" stroke="rgb(247, 250, 175)" stroke-width="3.3983286908077996"/><title>Piccolo → Woodwinds: 2</title></g><g style="mix-blend-mode: multiply;"><path d="M5,20.947075208913553C302.5,20.947075208913553,302.5,85.84958217270194,600,85.84958217270194" stroke="rgb(241, 249, 170)" stroke-width="1.6991643454038998"/><title>Pipe organ → Keyboards: 1</title></g><g style="mix-blend-mode: multiply;"><path d="M5,168.71866295264616C302.5,168.71866295264616,302.5,133.32869080779946,600,133.32869080779946" stroke="rgb(232, 246, 164)" stroke-width="5.0974930362116995"/><title>Snare Drum → Percussion: 3</title></g><g style="mix-blend-mode: multiply;"><path d="M5,120.77994428969355C302.5,120.77994428969355,302.5,110.38997214484682,600,110.38997214484682" stroke="rgb(222, 242, 160)" stroke-width="3.3983286908077996"/><title>Tam-tam → Percussion: 2</title></g><g style="mix-blend-mode: multiply;"><path d="M5,178.81615598885784C302.5,178.81615598885784,302.5,138.42618384401115,600,138.42618384401115" stroke="rgb(210, 237, 158)" stroke-width="5.0974930362116995"/><title>Tambourine → Percussion: 3</title></g><g style="mix-blend-mode: multiply;"><path d="M5,27.646239554317468C302.5,27.646239554317468,302.5,102.74373259052926,600,102.74373259052926" stroke="rgb(195, 231, 159)" stroke-width="1.6991643454038998"/><title>Tenor drum → Percussion: 1</title></g><g style="mix-blend-mode: multiply;"><path d="M5,231.94986072423384C302.5,231.94986072423384,302.5,154.56824512534817,600,154.56824512534817" stroke="rgb(179, 224, 161)" stroke-width="16.991643454039"/><title>Timpani → Percussion: 10</title></g><g style="mix-blend-mode: multiply;"><path d="M5,188.91364902506947C302.5,188.91364902506947,302.5,143.52367688022284,600,143.52367688022284" stroke="rgb(163, 218, 163)" stroke-width="5.0974930362116995"/><title>Triangle → Percussion: 3</title></g><g style="mix-blend-mode: multiply;"><path d="M5,351.25348189415024C302.5,351.25348189415024,302.5,287.75766016713095,600,287.75766016713095" stroke="rgb(145, 211, 164)" stroke-width="22.0891364902507"/><title>Trombones → Brass: 13</title></g><g style="mix-blend-mode: multiply;"><path d="M5,379.1922005571029C302.5,379.1922005571029,302.5,310.69637883008363,600,310.69637883008363" stroke="rgb(128, 203, 166)" stroke-width="23.788300835654596"/><title>Trumpets → Brass: 14</title></g><g style="mix-blend-mode: multiply;"><path d="M5,214.2061281337046C302.5,214.2061281337046,302.5,272.46518105849583,600,272.46518105849583" stroke="rgb(111, 193, 168)" stroke-width="8.4958217270195"/><title>Tubas → Brass: 5</title></g><g style="mix-blend-mode: multiply;"><path d="M5,34.34540389972138C302.5,34.34540389972138,302.5,104.44289693593316,600,104.44289693593316" stroke="rgb(96, 182, 171)" stroke-width="1.6991643454038998"/><title>Tubular bells → Percussion: 1</title></g><g style="mix-blend-mode: multiply;"><path d="M5,41.0445682451253C302.5,41.0445682451253,302.5,106.14206128133706,600,106.14206128133706" stroke="rgb(82, 169, 175)" stroke-width="1.6991643454038998"/><title>Vibraphone → Percussion: 1</title></g><g style="mix-blend-mode: multiply;"><path d="M5,582.7019498607241C302.5,582.7019498607241,302.5,507.70194986072426,600,507.70194986072426" stroke="rgb(72, 154, 179)" stroke-width="67.966573816156"/><title>Violas → Strings: 40</title></g><g style="mix-blend-mode: multiply;"><path d="M5,754.1225626740946C302.5,754.1225626740946,302.5,669.1225626740948,600,669.1225626740948" stroke="rgb(66, 139, 181)" stroke-width="91.7548746518106"/><title>Violins 1 → Strings: 54</title></g><g style="mix-blend-mode: multiply;"><path d="M5,662.4651810584958C302.5,662.4651810584958,302.5,582.4651810584959,600,582.4651810584959" stroke="rgb(67, 124, 179)" stroke-width="81.55988857938719"/><title>Violins 2 → Strings: 48</title></g><g style="mix-blend-mode: multiply;"><path d="M5,47.74373259052921C302.5,47.74373259052921,302.5,263.96935933147637,600,263.96935933147637" stroke="rgb(73, 109, 175)" stroke-width="1.6991643454038998"/><title>Wagner Tuba → Brass: 1</title></g><g style="mix-blend-mode: multiply;"><path d="M5,54.44289693593313C302.5,54.44289693593313,302.5,107.84122562674096,600,107.84122562674096" stroke="rgb(83, 94, 169)" stroke-width="1.6991643454038998"/><title>Wood block → Percussion: 1</title></g><g style="mix-blend-mode: multiply;"><path d="M5,129.1782729805013C302.5,129.1782729805013,302.5,113.78830083565462,600,113.78830083565462" stroke="rgb(94, 79, 162)" stroke-width="3.3983286908077996"/><title>Xylophone → Percussion: 2</title></g></g><g><text x="9" y="0.8495821727018362" text-anchor="start"><tspan alignment-baseline="middle" x="9" style="font-family: Arial, sans-serif; font-size: 10px; fill: black; font-weight: bold;">Baritone horn</tspan></text><text x="9" y="7.548746518105737" text-anchor="start"><tspan alignment-baseline="middle" x="9" style="font-family: Arial, sans-serif; font-size: 10px; fill: black; font-weight: bold;">Chimes</tspan></text><text x="9" y="14.247910863509645" text-anchor="start"><tspan alignment-baseline="middle" x="9" style="font-family: Arial, sans-serif; font-size: 10px; fill: black; font-weight: bold;">Marimba</tspan></text><text x="9" y="20.94707520891356" text-anchor="start"><tspan alignment-baseline="middle" x="9" style="font-family: Arial, sans-serif; font-size: 10px; fill: black; font-weight: bold;">Pipe organ</tspan></text><text x="9" y="27.646239554317475" text-anchor="start"><tspan alignment-baseline="middle" x="9" style="font-family: Arial, sans-serif; font-size: 10px; fill: black; font-weight: bold;">Tenor drum</tspan></text><text x="9" y="34.34540389972139" text-anchor="start"><tspan alignment-baseline="middle" x="9" style="font-family: Arial, sans-serif; font-size: 10px; fill: black; font-weight: bold;">Tubular bells</tspan></text><text x="9" y="41.044568245125305" text-anchor="start"><tspan alignment-baseline="middle" x="9" style="font-family: Arial, sans-serif; font-size: 10px; fill: black; font-weight: bold;">Vibraphone</tspan></text><text x="9" y="47.74373259052922" text-anchor="start"><tspan alignment-baseline="middle" x="9" style="font-family: Arial, sans-serif; font-size: 10px; fill: black; font-weight: bold;">Wagner Tuba</tspan></text><text x="9" y="54.442896935933135" text-anchor="start"><tspan alignment-baseline="middle" x="9" style="font-family: Arial, sans-serif; font-size: 10px; fill: black; font-weight: bold;">Wood block</tspan></text><text x="9" y="61.99164345403899" text-anchor="start"><tspan alignment-baseline="middle" x="9" style="font-family: Arial, sans-serif; font-size: 10px; fill: black; font-weight: bold;">Bass Clarinet</tspan></text><text x="9" y="70.3899721448468" text-anchor="start"><tspan alignment-baseline="middle" x="9" style="font-family: Arial, sans-serif; font-size: 10px; fill: black; font-weight: bold;">Celesta</tspan></text><text x="9" y="78.7883008356546" text-anchor="start"><tspan alignment-baseline="middle" x="9" style="font-family: Arial, sans-serif; font-size: 10px; fill: black; font-weight: bold;">Contrabassoon</tspan></text><text x="9" y="87.1866295264624" text-anchor="start"><tspan alignment-baseline="middle" x="9" style="font-family: Arial, sans-serif; font-size: 10px; fill: black; font-weight: bold;">Cornet</tspan></text><text x="9" y="95.5849582172702" text-anchor="start"><tspan alignment-baseline="middle" x="9" style="font-family: Arial, sans-serif; font-size: 10px; fill: black; font-weight: bold;">English Horn</tspan></text><text x="9" y="103.98328690807799" text-anchor="start"><tspan alignment-baseline="middle" x="9" style="font-family: Arial, sans-serif; font-size: 10px; fill: black; font-weight: bold;">Piano</tspan></text><text x="9" y="112.38161559888576" text-anchor="start"><tspan alignment-baseline="middle" x="9" style="font-family: Arial, sans-serif; font-size: 10px; fill: black; font-weight: bold;">Piccolo</tspan></text><text x="9" y="120.77994428969353" text-anchor="start"><tspan alignment-baseline="middle" x="9" style="font-family: Arial, sans-serif; font-size: 10px; fill: black; font-weight: bold;">Tam-tam</tspan></text><text x="9" y="129.17827298050133" text-anchor="start"><tspan alignment-baseline="middle" x="9" style="font-family: Arial, sans-serif; font-size: 10px; fill: black; font-weight: bold;">Xylophone</tspan></text><text x="9" y="138.4261838440111" text-anchor="start"><tspan alignment-baseline="middle" x="9" style="font-family: Arial, sans-serif; font-size: 10px; fill: black; font-weight: bold;">Bass Drum</tspan></text><text x="9" y="148.52367688022278" text-anchor="start"><tspan alignment-baseline="middle" x="9" style="font-family: Arial, sans-serif; font-size: 10px; fill: black; font-weight: bold;">Cymbals</tspan></text><text x="9" y="158.62116991643447" text-anchor="start"><tspan alignment-baseline="middle" x="9" style="font-family: Arial, sans-serif; font-size: 10px; fill: black; font-weight: bold;">Glockenspiel</tspan></text><text x="9" y="168.71866295264616" text-anchor="start"><tspan alignment-baseline="middle" x="9" style="font-family: Arial, sans-serif; font-size: 10px; fill: black; font-weight: bold;">Snare Drum</tspan></text><text x="9" y="178.81615598885782" text-anchor="start"><tspan alignment-baseline="middle" x="9" style="font-family: Arial, sans-serif; font-size: 10px; fill: black; font-weight: bold;">Tambourine</tspan></text><text x="9" y="188.91364902506947" text-anchor="start"><tspan alignment-baseline="middle" x="9" style="font-family: Arial, sans-serif; font-size: 10px; fill: black; font-weight: bold;">Triangle</tspan></text><text x="596" y="89.24791086350976" text-anchor="end"><tspan alignment-baseline="middle" x="596" style="font-family: Arial, sans-serif; font-size: 10px; fill: black; font-weight: bold;">Keyboards</tspan></text><text x="9" y="200.71030640668508" text-anchor="start"><tspan alignment-baseline="middle" x="9" style="font-family: Arial, sans-serif; font-size: 10px; fill: black; font-weight: bold;">Harps</tspan></text><text x="9" y="214.2061281337046" text-anchor="start"><tspan alignment-baseline="middle" x="9" style="font-family: Arial, sans-serif; font-size: 10px; fill: black; font-weight: bold;">Tubas</tspan></text><text x="9" y="231.94986072423384" text-anchor="start"><tspan alignment-baseline="middle" x="9" style="font-family: Arial, sans-serif; font-size: 10px; fill: black; font-weight: bold;">Timpani</tspan></text><text x="9" y="254.79108635097478" text-anchor="start"><tspan alignment-baseline="middle" x="9" style="font-family: Arial, sans-serif; font-size: 10px; fill: black; font-weight: bold;">Bassoons</tspan></text><text x="9" y="278.4818941504177" text-anchor="start"><tspan alignment-baseline="middle" x="9" style="font-family: Arial, sans-serif; font-size: 10px; fill: black; font-weight: bold;">Clarinets</tspan></text><text x="9" y="302.17270194986054" text-anchor="start"><tspan alignment-baseline="middle" x="9" style="font-family: Arial, sans-serif; font-size: 10px; fill: black; font-weight: bold;">Flutes</tspan></text><text x="9" y="325.8635097493035" text-anchor="start"><tspan alignment-baseline="middle" x="9" style="font-family: Arial, sans-serif; font-size: 10px; fill: black; font-weight: bold;">Oboes</tspan></text><text x="9" y="351.25348189415024" text-anchor="start"><tspan alignment-baseline="middle" x="9" style="font-family: Arial, sans-serif; font-size: 10px; fill: black; font-weight: bold;">Trombones</tspan></text><text x="9" y="379.1922005571029" text-anchor="start"><tspan alignment-baseline="middle" x="9" style="font-family: Arial, sans-serif; font-size: 10px; fill: black; font-weight: bold;">Trumpets</tspan></text><text x="9" y="416.476323119777" text-anchor="start"><tspan alignment-baseline="middle" x="9" style="font-family: Arial, sans-serif; font-size: 10px; fill: black; font-weight: bold;">French Horns</tspan></text><text x="9" y="463.1058495821726" text-anchor="start"><tspan alignment-baseline="middle" x="9" style="font-family: Arial, sans-serif; font-size: 10px; fill: black; font-weight: bold;">Double basses</tspan></text><text x="9" y="516.5320334261837" text-anchor="start"><tspan alignment-baseline="middle" x="9" style="font-family: Arial, sans-serif; font-size: 10px; fill: black; font-weight: bold;">Cellos</tspan></text><text x="596" y="130.77994428969362" text-anchor="end"><tspan alignment-baseline="middle" x="596" style="font-family: Arial, sans-serif; font-size: 10px; fill: black; font-weight: bold;">Percussion</tspan></text><text x="9" y="582.7019498607242" text-anchor="start"><tspan alignment-baseline="middle" x="9" style="font-family: Arial, sans-serif; font-size: 10px; fill: black; font-weight: bold;">Violas</tspan></text><text x="9" y="662.4651810584958" text-anchor="start"><tspan alignment-baseline="middle" x="9" style="font-family: Arial, sans-serif; font-size: 10px; fill: black; font-weight: bold;">Violins 2</tspan></text><text x="596" y="212.2423398328691" text-anchor="end"><tspan alignment-baseline="middle" x="596" style="font-family: Arial, sans-serif; font-size: 10px; fill: black; font-weight: bold;">Woodwinds</tspan></text><text x="9" y="754.1225626740948" text-anchor="start"><tspan alignment-baseline="middle" x="9" style="font-family: Arial, sans-serif; font-size: 10px; fill: black; font-weight: bold;">Violins 1</tspan></text><text x="596" y="312.3955431754875" text-anchor="end"><tspan alignment-baseline="middle" x="596" style="font-family: Arial, sans-serif; font-size: 10px; fill: black; font-weight: bold;">Brass</tspan></text><text x="596" y="541.6852367688023" text-anchor="end"><tspan alignment-baseline="middle" x="596" style="font-family: Arial, sans-serif; font-size: 10px; fill: black; font-weight: bold;">Strings</tspan></text></g><g><text x="2.5" y="-4.000000000000114" text-anchor="middle" style="font-family: Arial, sans-serif; font-size: 12px; fill: rgb(123, 123, 123); font-weight: bold;">Instrument</text><text x="602.5" y="81" text-anchor="middle" style="font-family: Arial, sans-serif; font-size: 12px; fill: rgb(123, 123, 123); font-weight: bold;">Group</text></g></g></svg>